<?xml version="1.0" encoding="utf-8"?>
<!-- Generator: Adobe Illustrator 24.1.3, SVG Export Plug-In . SVG Version: 6.00 Build 0)  -->
<svg version="1.1" id="Layer_1" xmlns="http://www.w3.org/2000/svg" xmlns:xlink="http://www.w3.org/1999/xlink" x="0px" y="0px"
	 viewBox="0 0 1280 960" style="enable-background:new 0 0 1280 960;" xml:space="preserve">
<style type="text/css">
	.st0{fill:#DCDCDF;}
	.st1{opacity:0.8;}
	.st2{opacity:0.6;fill:#78787B;}
	.st3{fill:#EFC100;}
	.st4{fill:#FFFFFF;}
	.st5{fill:#1D1753;}
	.st6{font-family:'HelveticaNeue-Bold';}
	.st7{font-size:17.3381px;}
	.st8{fill:#FFFFFF;stroke:#DCDCDF;stroke-width:0.6935;stroke-miterlimit:10;}
	.st9{fill:#78787B;}
	.st10{font-size:8.3223px;}
	.st11{fill:none;stroke:#DCDCDF;stroke-width:0.6935;stroke-miterlimit:10;}
	.st12{opacity:0.3;fill:#78787B;}
	.st13{font-family:'HelveticaNeue-Medium';}
	.st14{font-size:9.7093px;}
	.st15{fill:none;}
	.st16{font-size:5.5482px;}
	.st17{font-size:3.4676px;}
	.st18{font-size:11.219px;}
	.st19{fill:none;stroke:#DCDCDF;stroke-width:0.9349;stroke-miterlimit:10;}
	.st20{font-size:18.6983px;}
	.st21{opacity:0.8;fill:#323237;}
	.st22{font-size:42.0713px;}
	.st23{opacity:0.8;fill:#6E6E73;}
	.st24{font-size:32.7221px;}
</style>
<g>
	
		<image style="overflow:visible;opacity:0.4;" width="708" height="811" xlink:href="73417705665ED9F5.png"  transform="matrix(1 0 0 1 1325 205.0917)">
	</image>
	<g>
		<g>
			<g>
				<path class="st0" d="M1780.21,893.52l-324.36-88.55l131.54-481.86l324.36,88.55c7.99,2.18,12.7,10.43,10.52,18.42L1798.63,883
					C1796.45,890.99,1788.2,895.7,1780.21,893.52z"/>
			</g>
			<g>
				<g class="st1">
					<path class="st2" d="M1739.49,528.25c0.34-1.31,0.56-2.64,0.68-3.98c0.25-2.89,0.02-5.73-0.71-8.54
						c-0.69-2.66-1.79-5.15-3.29-7.45c-0.6-0.92-1.28-1.77-1.96-2.63c-1.21-1.52-2.54-2.92-4.05-4.14
						c-1.52-1.22-3.16-2.25-4.92-3.09c-1.11-0.52-2.24-0.96-3.41-1.33c-1.1-0.34-2.23-0.59-3.37-0.76c-1.09-0.17-2.19-0.27-3.29-0.3
						c-2.08-0.05-4.13,0.17-6.16,0.65c-2.72,0.64-5.26,1.71-7.61,3.21c-2.21,1.41-4.15,3.13-5.81,5.16c-2,2.44-3.47,5.17-4.43,8.17
						c-0.3,0.94-0.54,1.9-0.72,2.87c-0.04,0.19-0.06,0.38-0.09,0.57c0.13-0.12,0.28-0.07,0.41-0.06c0.43,0.03,0.86,0.05,1.29,0.08
						c1.38,0.08,2.75,0.08,4.13,0.04c1.63-0.05,3.25-0.18,4.87-0.43c1.14-0.18,2.27-0.4,3.37-0.74c1.76-0.55,3.45-1.26,5.11-2.05
						c1.21-0.57,2.39-1.2,3.65-1.68c0.98-0.37,1.98-0.58,3.03-0.56c0.69,0.01,1.37,0.1,2.03,0.28c0.62,0.17,1.22,0.41,1.79,0.72
						c1.2,0.65,2.21,1.5,2.86,2.72c0.38,0.71,0.55,1.46,0.42,2.26c-0.02,0.14,0.02,0.21,0.13,0.29c0.31,0.23,0.6,0.47,0.9,0.71
						c1.01,0.83,2.02,1.66,3.02,2.5c0.2,0.17,0.42,0.32,0.6,0.53c-0.61,0.04-1.2,0-1.78-0.04c-0.73-0.05-1.46-0.1-2.19-0.13
						c-0.89-0.04-1.77,0.1-2.65,0.24c-0.25,0.04-0.5,0.07-0.75,0.13c-1.49,0.38-2.83,1.06-4.07,1.96c-0.99,0.72-1.85,1.56-2.58,2.54
						c-0.33,0.44-0.62,0.9-0.93,1.35c-0.57,0.84-1.16,1.67-1.8,2.46c-1.05,1.3-2.21,2.5-3.52,3.56c-2.29,1.86-4.86,3.16-7.72,3.87
						c-1.34,0.34-2.7,0.53-4.08,0.59c-0.17,0.01-0.35-0.01-0.52,0.07c0.03,0.13,0.13,0.2,0.2,0.29c1.36,1.65,2.91,3.1,4.65,4.36
						c1.57,1.14,3.26,2.08,5.05,2.84c1.33,0.56,2.7,0.99,4.1,1.31c1.45,0.34,2.92,0.54,4.41,0.62c2.29,0.12,4.56-0.08,6.81-0.58
						c2.21-0.5,4.31-1.27,6.31-2.33c1.82-0.97,3.5-2.14,5.03-3.53c1.99-1.79,3.65-3.85,4.99-6.17c0.86-1.49,1.56-3.04,2.08-4.67
						C1739.16,529.42,1739.33,528.84,1739.49,528.25z M1728.89,523.49c0.06-1.62,1.21-3.12,3-3.59
						C1731.89,521.47,1730.69,522.87,1728.89,523.49z M1732.2,516.78c0.17,1.36-1.16,3.05-2.9,3.66
						C1729.31,518.82,1730.42,517.3,1732.2,516.78z M1731.92,513.16c0.06,0.43,0.07,0.85,0,1.27c-0.15,0.9-0.63,1.6-1.26,2.22
						c-0.26,0.26-0.55,0.49-0.86,0.69C1729.45,515.71,1730.31,513.97,1731.92,513.16z M1731.77,510.22c0.11,0.8,0.05,1.55-0.33,2.27
						c-0.36,0.68-0.87,1.22-1.47,1.68c-0.11,0.08-0.22,0.16-0.33,0.24C1729.29,512.78,1730.11,511.09,1731.77,510.22z
						 M1730.81,507.02c0.13,0.44,0.21,0.87,0.2,1.32c-0.02,0.87-0.37,1.62-0.89,2.31c-0.23,0.3-0.48,0.59-0.78,0.85
						C1728.77,509.74,1729.4,508.09,1730.81,507.02z M1729.26,504.2c0.89,0.95,0.66,3.31-0.47,4.65
						C1727.93,507.4,1728.05,505.64,1729.26,504.2z M1726.08,502.38c1.47,1.04,1.74,2.49,1.51,4.13
						C1726.38,506.03,1725.6,503.91,1726.08,502.38z M1724.45,505.49c1.57,0.22,2.77,1.58,3.16,3.44
						C1726.12,508.72,1724.67,507.38,1724.45,505.49z M1724.89,508.41c1.71,0.31,2.79,1.7,3.17,3.46
						C1726.56,511.67,1725.13,510.33,1724.89,508.41z M1725.09,511.26c1.6,0.28,2.76,1.52,3.2,3.5c-0.78-0.19-1.45-0.52-2.01-1.07
						C1725.6,513.03,1725.25,512.2,1725.09,511.26z M1725.33,513.77c1.57,0.4,2.61,1.84,2.82,3.73
						C1726.48,517.05,1725.36,515.47,1725.33,513.77z M1727.35,520.07c-1.11-0.54-1.8-1.43-2.11-2.62c-0.06-0.24-0.1-0.5-0.14-0.75
						c-0.02-0.17,0.01-0.18,0.18-0.12c1.15,0.42,1.91,1.22,2.34,2.35c0.17,0.44,0.29,0.89,0.34,1.37
						C1727.73,520.28,1727.54,520.16,1727.35,520.07z M1725.37,521.67c1.17,0.7,1.68,2.85,1.06,4.58
						C1725.13,525.13,1724.71,523.4,1725.37,521.67z M1724.08,524.18c1.31,1.15,1.63,2.8,1.05,4.61c-0.56-0.49-0.95-1.06-1.17-1.75
						C1723.64,526.09,1723.74,525.14,1724.08,524.18z M1722.98,527.06c0.99,1.04,1.24,2.72,0.28,4.68
						C1722.11,530.36,1722.05,528.54,1722.98,527.06z M1722.78,534.01c-1.43,1.54-3.03,2.88-4.77,4.05
						c-0.39,0.26-0.78,0.52-1.2,0.76c-0.11-0.2-0.21-0.38-0.32-0.56c0.16-0.16,0.38-0.26,0.59-0.39c2.72-1.74,5.08-3.86,6.98-6.48
						c0.84-1.17,1.57-2.4,2.17-3.71c0.4-0.86,0.74-1.74,1.04-2.64c0.35-1.06,0.61-2.13,0.82-3.22c0.54-2.75,0.62-5.52,0.43-8.31
						c-0.11-1.57-0.31-3.13-0.59-4.68c-0.1-0.57-0.2-1.13-0.34-1.7c-0.01-0.06-0.07-0.14,0.04-0.17c0.11-0.04,0.16,0.02,0.19,0.12
						c0.11,0.39,0.24,0.79,0.34,1.18c0.71,2.82,1.01,5.69,0.98,8.59c-0.02,1.55-0.14,3.08-0.37,4.61c-0.2,1.29-0.44,2.58-0.85,3.83
						c-0.6,1.81-1.39,3.52-2.39,5.14C1724.72,531.71,1723.81,532.9,1722.78,534.01z M1724.78,532.18c0.75-1.68,2.32-2.51,4.04-2.39
						C1728.23,531.38,1726.57,532.19,1724.78,532.18z M1726.62,529.5c0.35-1.5,1.61-2.81,3.63-3.01
						C1729.84,528.14,1728.5,529.21,1726.62,529.5z M1728.06,526.64c0.1-1.63,1.25-3.06,3.07-3.54
						C1731.15,524.51,1730.05,525.97,1728.06,526.64z"/>
					<g>
						
							<text transform="matrix(0.9647 0.2633 -0.2633 0.9647 1665.1873 564.8495)" class="st9" style="font-family:'Montserrat-Bold'; font-size:12.5105px;">PASSPORT</text>
						
							<text transform="matrix(0.9647 0.2633 -0.2633 0.9647 1642.7948 583.9302)" class="st9" style="font-family:'Montserrat-Black'; font-size:19.3711px;">PREPMUN</text>
					</g>
				</g>
				
					<rect x="1635.86" y="555.56" transform="matrix(0.2633 -0.9647 0.9647 0.2633 588.0786 2108.8765)" class="st15" width="78.09" height="227.61"/>
				<text transform="matrix(0.9647 0.2633 -0.2633 0.9647 1573.0365 610.2694)"><tspan x="0" y="0" class="st9 st6" style="font-size:12.3549px;">We,</tspan><tspan x="22.19" y="0" class="st9 st6" style="font-size:12.3549px; letter-spacing:3;"> </tspan><tspan x="28.92" y="0" class="st9 st6" style="font-size:12.3549px;">the</tspan><tspan x="47.68" y="0" class="st9 st6" style="font-size:12.3549px; letter-spacing:3;"> </tspan><tspan x="54.41" y="0" class="st9 st6" style="font-size:12.3549px;">Secretariat,</tspan><tspan x="122.82" y="0" class="st9 st6" style="font-size:12.3549px; letter-spacing:3;"> </tspan><tspan x="129.54" y="0" class="st9 st6" style="font-size:12.3549px;">pledge</tspan><tspan x="169.56" y="0" class="st9 st6" style="font-size:12.3549px; letter-spacing:3;"> </tspan><tspan x="176.29" y="0" class="st9 st6" style="font-size:12.3549px;">to</tspan><tspan x="188.18" y="0" class="st9 st6" style="font-size:12.3549px; letter-spacing:3;"> </tspan><tspan x="194.91" y="0" class="st9 st6" style="font-size:12.3549px;">equip </tspan><tspan x="0" y="17.06" class="st9 st6" style="font-size:12.3549px;">participants</tspan><tspan x="70.21" y="17.06" class="st9 st6" style="font-size:12.3549px; letter-spacing:10;"> </tspan><tspan x="84.34" y="17.06" class="st9 st6" style="font-size:12.3549px;">with</tspan><tspan x="109.26" y="17.06" class="st9 st6" style="font-size:12.3549px; letter-spacing:10;"> </tspan><tspan x="123.39" y="17.06" class="st9 st6" style="font-size:12.3549px;">the</tspan><tspan x="142.15" y="17.06" class="st9 st6" style="font-size:12.3549px; letter-spacing:10;"> </tspan><tspan x="156.28" y="17.06" class="st9 st6" style="font-size:12.3549px;">three</tspan><tspan x="186.95" y="17.06" class="st9 st6" style="font-size:12.3549px; letter-spacing:10;"> </tspan><tspan x="201.07" y="17.06" class="st9 st6" style="font-size:12.3549px;">core </tspan><tspan x="0" y="34.12" class="st9 st6" style="font-size:12.3549px;">competencies</tspan><tspan x="83.25" y="34.12" class="st9 st6" style="font-size:12.3549px; letter-spacing:3;"> </tspan><tspan x="89.82" y="34.12" class="st9 st6" style="font-size:12.3549px;">required</tspan><tspan x="139.23" y="34.12" class="st9 st6" style="font-size:12.3549px; letter-spacing:3;"> </tspan><tspan x="145.8" y="34.12" class="st9 st6" style="font-size:12.3549px;">to</tspan><tspan x="157.7" y="34.12" class="st9 st6" style="font-size:12.3549px; letter-spacing:3;"> </tspan><tspan x="164.27" y="34.12" class="st9 st6" style="font-size:12.3549px;">participate </tspan><tspan x="0" y="51.18" class="st9 st6" style="font-size:12.3549px;">in</tspan><tspan x="10.51" y="51.18" class="st9 st6" style="font-size:12.3549px;"> </tspan><tspan x="14.52" y="51.18" class="st9 st6" style="font-size:12.3549px;">MUN</tspan><tspan x="44.04" y="51.18" class="st9 st6" style="font-size:12.3549px;"> </tspan><tspan x="48.04" y="51.18" class="st9 st6" style="font-size:12.3549px;">Conferences:</tspan><tspan x="126.76" y="51.18" class="st9 st6" style="font-size:12.3549px;"> </tspan><tspan x="130.76" y="51.18" class="st9 st6" style="font-size:12.3549px;">public</tspan><tspan x="166.65" y="51.18" class="st9 st6" style="font-size:12.3549px;"> </tspan><tspan x="170.66" y="51.18" class="st9 st6" style="font-size:12.3549px;">speaking, </tspan><tspan x="0" y="68.25" class="st9 st6" style="font-size:12.3549px;">negotiation skills, and leadership.</tspan></text>
			</g>
		</g>
	</g>
</g>
<rect x="0" class="st0" width="1280" height="960"/>
<g>
	<g>
		<text transform="matrix(1 0 0 1 303.7559 -1086.3361)" class="st5" style="font-family:'Montserrat-Black'; font-size:65px;">PREPMUN </text>
	</g>
	<g>
		<text transform="matrix(1 0 0 1 308.801 -1018.3323)" class="st23 st6" style="font-size:50px;">Get Ready for </text>
	</g>
</g>
<rect x="-610.12" y="-927.05" class="st3" width="253.98" height="253.98"/>
<g>
	<g>
		
			<image style="overflow:visible;opacity:0.25;" width="882" height="741" xlink:href="73417705665ED9F7.png"  transform="matrix(1 0 0 1 23.8337 208.9254)">
		</image>
		<g>
			<g>
				<rect x="122.24" y="301.22" class="st4" width="683.86" height="542.62"/>
				<g>
					<text transform="matrix(1 0 0 1 408.2521 359.0658)" class="st5 st6 st7">December 2020</text>
				</g>
				<line class="st8" x1="278.84" y1="426.51" x2="278.84" y2="401.82"/>
				<line class="st8" x1="353.6" y1="426.51" x2="353.6" y2="401.82"/>
				<line class="st8" x1="428.35" y1="426.51" x2="428.35" y2="401.82"/>
				<line class="st8" x1="503.11" y1="426.51" x2="503.11" y2="401.82"/>
				<line class="st8" x1="577.87" y1="426.51" x2="577.87" y2="401.82"/>
				<line class="st8" x1="652.62" y1="426.51" x2="652.62" y2="401.82"/>
				<g>
					<text transform="matrix(1 0 0 1 299.5114 414.1649)" class="st9 st6 st10">Monday</text>
				</g>
				<g>
					<text transform="matrix(1 0 0 1 225.8781 414.1649)" class="st9 st6 st10">Sunday</text>
				</g>
				<g>
					<text transform="matrix(1 0 0 1 441.3737 414.1649)" class="st9 st6 st10">Wednesday</text>
				</g>
				<g>
					<text transform="matrix(1 0 0 1 373.2404 414.1649)" class="st9 st6 st10">Tuesday</text>
				</g>
				<g>
					<text transform="matrix(1 0 0 1 520.8703 414.1644)" class="st9 st6 st10">Thursday</text>
				</g>
				<g>
					<text transform="matrix(1 0 0 1 671.0871 414.1649)" class="st9 st6 st10">Saturday</text>
				</g>
				<g>
					<text transform="matrix(1 0 0 1 602.1188 414.1649)" class="st9 st6 st10">Friday</text>
				</g>
				<rect x="204.08" y="423.02" class="st11" width="74.76" height="74.76"/>
				<text transform="matrix(1 0 0 1 257.9914 438.5653)" class="st12 st13 st14">30</text>
				<rect x="278.84" y="423.02" class="st11" width="74.76" height="74.76"/>
				<text transform="matrix(1 0 0 1 332.7482 438.5614)" class="st12 st13 st14">31</text>
				<rect x="353.6" y="423.02" class="st11" width="74.76" height="74.76"/>
				<text transform="matrix(1 0 0 1 412.9035 438.5653)" class="st9 st13 st14">1</text>
				<rect x="428.35" y="423.02" class="st11" width="74.76" height="74.76"/>
				<text transform="matrix(1 0 0 1 487.6603 438.5614)" class="st9 st13 st14">2</text>
				<rect x="503.11" y="423.02" class="st11" width="74.76" height="74.76"/>
				<text transform="matrix(1 0 0 1 562.4172 438.5638)" class="st9 st13 st14">3</text>
				<rect x="577.87" y="423.02" class="st11" width="74.76" height="74.76"/>
				<text transform="matrix(1 0 0 1 637.174 438.5673)" class="st9 st13 st14">4</text>
				<rect x="652.62" y="423.02" class="st11" width="74.76" height="74.76"/>
				<g>
					<text transform="matrix(1 0 0 1 711.9055 438.5634)" class="st5 st6 st14">5</text>
				</g>
				<rect x="204.08" y="497.78" class="st11" width="74.76" height="74.76"/>
				<g>
					<text transform="matrix(1 0 0 1 263.3898 513.3265)" class="st5 st6 st14">6</text>
				</g>
				<rect x="278.84" y="497.78" class="st11" width="74.76" height="74.76"/>
				<text transform="matrix(1 0 0 1 338.1467 513.3226)" class="st9 st13 st14">7</text>
				<rect x="353.6" y="497.78" class="st11" width="74.76" height="74.76"/>
				<text transform="matrix(1 0 0 1 412.9035 513.3265)" class="st9 st13 st14">8</text>
				<rect x="428.35" y="497.78" class="st11" width="74.76" height="74.76"/>
				<text transform="matrix(1 0 0 1 487.6603 513.3226)" class="st9 st13 st14">9</text>
				<rect x="503.11" y="497.78" class="st11" width="74.76" height="74.76"/>
				<text transform="matrix(1 0 0 1 557.0187 513.3246)" class="st9 st13 st14">10</text>
				<rect x="577.87" y="497.78" class="st11" width="74.76" height="74.76"/>
				<text transform="matrix(1 0 0 1 631.7756 513.3285)" class="st9 st13 st14">11</text>
				<rect x="652.62" y="497.78" class="st11" width="74.76" height="74.76"/>
				<text transform="matrix(1 0 0 1 706.5334 513.3246)" class="st9 st13 st14">12</text>
				<rect x="204.06" y="572.55" class="st11" width="74.76" height="74.76"/>
				<g>
					<text transform="matrix(1 0 0 1 257.966 588.0951)" class="st5 st6 st14">13</text>
				</g>
				<rect x="278.82" y="572.55" class="st11" width="74.76" height="74.76"/>
				<g>
					<text transform="matrix(1 0 0 1 332.7228 588.0912)" class="st5 st6 st14">14</text>
				</g>
				<rect x="353.57" y="572.55" class="st11" width="74.76" height="74.76"/>
				<g>
					<text transform="matrix(1 0 0 1 407.4797 588.0951)" class="st5 st6 st14">15</text>
				</g>
				<rect x="428.33" y="572.55" class="st11" width="74.76" height="74.76"/>
				<g>
					<text transform="matrix(1 0 0 1 482.2365 588.0912)" class="st5 st6 st14">16</text>
				</g>
				<rect x="503.09" y="572.55" class="st11" width="74.76" height="74.76"/>
				<g>
					<text transform="matrix(1 0 0 1 556.9933 588.0931)" class="st5 st6 st14">17</text>
				</g>
				<rect x="577.84" y="572.55" class="st11" width="74.76" height="74.76"/>
				<text transform="matrix(1 0 0 1 631.7502 588.097)" class="st9 st13 st14">18</text>
				<rect x="652.6" y="572.55" class="st11" width="74.76" height="74.76"/>
				<g>
					<text transform="matrix(1 0 0 1 706.507 588.0931)" class="st5 st6 st14">19</text>
				</g>
				<rect x="204.06" y="647.31" class="st11" width="74.76" height="74.76"/>
				<g>
					<text transform="matrix(1 0 0 1 257.966 662.8558)" class="st5 st6 st14">20</text>
				</g>
				<rect x="278.82" y="647.31" class="st11" width="74.76" height="74.76"/>
				<text transform="matrix(1 0 0 1 332.7228 662.8519)" class="st9 st13 st14">21</text>
				<rect x="353.57" y="647.31" class="st11" width="74.76" height="74.76"/>
				<text transform="matrix(1 0 0 1 407.4797 662.8558)" class="st9 st13 st14">22</text>
				<rect x="428.33" y="647.31" class="st11" width="74.76" height="74.76"/>
				<text transform="matrix(1 0 0 1 482.2365 662.8519)" class="st9 st13 st14">23</text>
				<rect x="503.09" y="647.31" class="st11" width="74.76" height="74.76"/>
				<text transform="matrix(1 0 0 1 556.9933 662.8539)" class="st9 st13 st14">24</text>
				<rect x="577.84" y="647.31" class="st11" width="74.76" height="74.76"/>
				<text transform="matrix(1 0 0 1 631.7502 662.8578)" class="st9 st13 st14">25</text>
				<rect x="652.6" y="647.31" class="st11" width="74.76" height="74.76"/>
				<text transform="matrix(1 0 0 1 706.507 662.8539)" class="st9 st13 st14">26</text>
				<rect x="204.06" y="722.08" class="st11" width="74.76" height="74.76"/>
				<g>
					<text transform="matrix(1 0 0 1 257.966 737.6244)" class="st5 st6 st14">27</text>
				</g>
				<rect x="278.82" y="722.08" class="st11" width="74.76" height="74.76"/>
				<text transform="matrix(1 0 0 1 332.7228 737.6205)" class="st9 st13 st14">28</text>
				<rect x="353.57" y="722.08" class="st11" width="74.76" height="74.76"/>
				<text transform="matrix(1 0 0 1 407.4797 737.6244)" class="st9 st13 st14">29</text>
				<rect x="428.33" y="722.08" class="st11" width="74.76" height="74.76"/>
				<text transform="matrix(1 0 0 1 482.2365 737.6205)" class="st9 st13 st14">30</text>
				<rect x="503.09" y="722.08" class="st11" width="74.76" height="74.76"/>
				<text transform="matrix(1 0 0 1 556.9933 737.6224)" class="st9 st13 st14">31</text>
				<rect x="577.84" y="722.08" class="st11" width="74.76" height="74.76"/>
				<text transform="matrix(1 0 0 1 637.1486 737.6263)" class="st12 st13 st14">1</text>
				<rect x="652.6" y="722.08" class="st11" width="74.76" height="74.76"/>
				<text transform="matrix(1 0 0 1 711.9055 737.6224)" class="st12 st13 st14">2</text>
				<g>
					<path class="st4" d="M726.89,399.12l0,397.37l-522.39,0l0-397.37L726.89,399.12 M728.27,397.74h-1.39l-522.39,0h-1.39v1.39
						l0,397.37v1.39h1.39l522.39,0h1.39v-1.39l0-397.37V397.74L728.27,397.74z"/>
				</g>
				<g>
					<rect x="661.26" y="477.36" class="st15" width="42.58" height="4"/>
					<text transform="matrix(1 0 0 1 661.2609 481.3236)" class="st5 st6 st16">MUN Simplified</text>
					<rect x="661.44" y="484.23" class="st15" width="42.58" height="3.02"/>
					<text transform="matrix(1 0 0 1 661.4416 486.7094)" class="st9 st6 st17">0800</text>
				</g>
				<g>
					<rect x="661.17" y="626.82" class="st15" width="42.58" height="4"/>
					<text transform="matrix(1 0 0 1 661.1701 630.7845)" class="st5 st6 st16">MUN Simplified</text>
					<rect x="661.35" y="633.69" class="st15" width="42.58" height="3.02"/>
					<text transform="matrix(1 0 0 1 661.3517 636.1693)" class="st9 st6 st17">0800</text>
				</g>
				<rect x="282.1" y="513.33" class="st4" width="7.2" height="35.47"/>
				<g>
					<rect x="208.63" y="523.63" class="st15" width="42.58" height="11.08"/>
					<text transform="matrix(1 0 0 1 208.6257 527.5873)"><tspan x="0" y="0" class="st5 st6 st16">Guest Speaker </tspan><tspan x="0" y="5.55" class="st5 st6 st16">Dialogues</tspan></text>
					<rect x="208.81" y="536.07" class="st15" width="42.58" height="3.02"/>
					<text transform="matrix(1 0 0 1 208.8064 538.5482)" class="st9 st6 st17">0800</text>
				</g>
				<g>
					<rect x="287.44" y="621.25" class="st15" width="42.58" height="11.08"/>
					<text transform="matrix(1 0 0 1 287.4372 625.2084)"><tspan x="0" y="0" class="st5 st6 st16">Online Crisis </tspan><tspan x="0" y="5.55" class="st5 st6 st16">Simulation</tspan></text>
					<rect x="287.62" y="633.69" class="st15" width="42.58" height="3.02"/>
					<text transform="matrix(1 0 0 1 287.6179 636.1693)" class="st9 st6 st17">0800</text>
				</g>
				<g>
					<rect x="208.63" y="546.56" class="st15" width="42.58" height="11.08"/>
					<text transform="matrix(1 0 0 1 208.6257 550.5238)"><tspan x="0" y="0" class="st5 st6 st16">Focus Group </tspan><tspan x="0" y="5.55" class="st5 st6 st16">Discussion</tspan></text>
					<rect x="208.81" y="559.01" class="st15" width="42.58" height="3.02"/>
					<text transform="matrix(1 0 0 1 208.8064 561.4838)" class="st9 st6 st17">1000</text>
				</g>
				<rect x="209.47" y="562.02" class="st4" width="7.65" height="10.16"/>
				<g>
					<rect x="208.63" y="598.39" class="st15" width="42.58" height="11.08"/>
					<text transform="matrix(1 0 0 1 208.6257 602.348)"><tspan x="0" y="0" class="st5 st6 st16">Guest Speaker </tspan><tspan x="0" y="5.55" class="st5 st6 st16">Dialogues</tspan></text>
					<rect x="208.81" y="610.83" class="st15" width="42.58" height="3.02"/>
					<text transform="matrix(1 0 0 1 208.8064 613.3099)" class="st9 st6 st17">0800</text>
				</g>
				<g>
					<rect x="208.63" y="621.25" class="st15" width="42.58" height="11.08"/>
					<text transform="matrix(1 0 0 1 208.6257 625.2084)"><tspan x="0" y="0" class="st5 st6 st16">Focus Group </tspan><tspan x="0" y="5.55" class="st5 st6 st16">Discussion</tspan></text>
					<rect x="208.81" y="633.69" class="st15" width="42.58" height="3.02"/>
					<text transform="matrix(1 0 0 1 208.8064 636.1693)" class="st9 st6 st17">1000</text>
				</g>
				<rect x="210.38" y="636.79" class="st4" width="7.65" height="10.16"/>
				<g>
					<rect x="208.63" y="673.16" class="st15" width="42.58" height="11.08"/>
					<text transform="matrix(1 0 0 1 208.6257 677.1224)"><tspan x="0" y="0" class="st5 st6 st16">Guest Speaker </tspan><tspan x="0" y="5.55" class="st5 st6 st16">Dialogues</tspan></text>
					<rect x="208.81" y="685.61" class="st15" width="42.58" height="3.02"/>
					<text transform="matrix(1 0 0 1 208.8064 688.0844)" class="st9 st6 st17">0800</text>
				</g>
				<g>
					<rect x="208.63" y="696.1" class="st15" width="42.58" height="11.08"/>
					<text transform="matrix(1 0 0 1 208.6257 700.059)"><tspan x="0" y="0" class="st5 st6 st16">Focus Group </tspan><tspan x="0" y="5.55" class="st5 st6 st16">Discussion</tspan></text>
					<rect x="208.81" y="708.54" class="st15" width="42.58" height="3.02"/>
					<text transform="matrix(1 0 0 1 208.8064 711.0199)" class="st9 st6 st17">1000</text>
				</g>
				<g>
					<rect x="208.63" y="747.92" class="st15" width="42.58" height="11.08"/>
					<text transform="matrix(1 0 0 1 208.6257 751.8842)"><tspan x="0" y="0" class="st5 st6 st16">Guest Speaker </tspan><tspan x="0" y="5.55" class="st5 st6 st16">Dialogues</tspan></text>
					<rect x="208.81" y="760.37" class="st15" width="42.58" height="3.02"/>
					<text transform="matrix(1 0 0 1 208.8064 762.8451)" class="st9 st6 st17">0800</text>
				</g>
				<g>
					<rect x="208.63" y="770.86" class="st15" width="42.58" height="11.08"/>
					<text transform="matrix(1 0 0 1 208.6257 774.8207)"><tspan x="0" y="0" class="st5 st6 st16">Focus Group </tspan><tspan x="0" y="5.55" class="st5 st6 st16">Discussion</tspan></text>
					<rect x="208.81" y="783.31" class="st15" width="42.58" height="3.02"/>
					<text transform="matrix(1 0 0 1 208.8064 785.7816)" class="st9 st6 st17">1000</text>
				</g>
				<g>
					<rect x="362.21" y="621.25" class="st15" width="42.58" height="11.08"/>
					<text transform="matrix(1 0 0 1 362.2062 625.2084)"><tspan x="0" y="0" class="st5 st6 st16">Online Crisis </tspan><tspan x="0" y="5.55" class="st5 st6 st16">Simulation</tspan></text>
					<rect x="362.39" y="633.69" class="st15" width="42.58" height="3.02"/>
					<text transform="matrix(1 0 0 1 362.3869 636.1693)" class="st9 st6 st17">0800</text>
				</g>
				<g>
					<rect x="437.05" y="621.25" class="st15" width="42.58" height="11.08"/>
					<text transform="matrix(1 0 0 1 437.051 625.2084)"><tspan x="0" y="0" class="st5 st6 st16">Online Crisis </tspan><tspan x="0" y="5.55" class="st5 st6 st16">Simulation</tspan></text>
					<rect x="437.23" y="633.69" class="st15" width="42.58" height="3.02"/>
					<text transform="matrix(1 0 0 1 437.2321 636.1693)" class="st9 st6 st17">0800</text>
				</g>
				<g>
					<rect x="511.72" y="621.25" class="st15" width="42.58" height="11.08"/>
					<text transform="matrix(1 0 0 1 511.7184 625.2084)"><tspan x="0" y="0" class="st5 st6 st16">Online Crisis </tspan><tspan x="0" y="5.55" class="st5 st6 st16">Simulation</tspan></text>
					<rect x="511.9" y="633.69" class="st15" width="42.58" height="3.02"/>
					<text transform="matrix(1 0 0 1 511.8991 636.1693)" class="st9 st6 st17">0800</text>
				</g>
				<g>
					<circle class="st3" cx="266.06" cy="741.6" r="1.09"/>
					<circle class="st5" cx="262.82" cy="741.6" r="1.09"/>
				</g>
				<g>
					<circle class="st3" cx="266.06" cy="666.83" r="1.09"/>
					<circle class="st5" cx="262.82" cy="666.83" r="1.09"/>
				</g>
				<g>
					<circle class="st3" cx="266.06" cy="592.07" r="1.09"/>
					<circle class="st5" cx="262.82" cy="592.07" r="1.09"/>
				</g>
				<g>
					<circle class="st3" cx="266.06" cy="517.31" r="1.09"/>
					<circle class="st5" cx="262.82" cy="517.31" r="1.09"/>
				</g>
				<circle class="st3" cx="340.76" cy="592.07" r="1.09"/>
				<circle class="st3" cx="415.6" cy="592.07" r="1.09"/>
				<circle class="st3" cx="490.36" cy="592.07" r="1.09"/>
				<circle class="st3" cx="565.08" cy="592.07" r="1.09"/>
				<circle class="st3" cx="714.6" cy="442.57" r="1.09"/>
				<circle class="st3" cx="714.6" cy="592.44" r="1.09"/>
				<rect x="719.8" y="588.43" class="st4" width="1.55" height="2.89"/>
			</g>
		</g>
	</g>
	<g>
		
			<image style="overflow:visible;opacity:0.25;" width="522" height="740" xlink:href="73417705665ED9F2.png"  transform="matrix(1 0 0 1 734.8124 209.0217)">
		</image>
		<g>
			<rect x="833.11" y="300.88" class="st4" width="324.65" height="542.62"/>
		</g>
	</g>
	<g>
		<text transform="matrix(1 0 0 1 879.7092 375.1805)" class="st5 st6 st7">13 December</text>
	</g>
	<g>
		<g>
			<text transform="matrix(1 0 0 1 879.7092 353.7035)" class="st9 st6 st18">Thursday</text>
		</g>
	</g>
	<g>
		<line class="st19" x1="863.85" y1="423.83" x2="1127.02" y2="423.83"/>
		<line class="st19" x1="863.85" y1="675.66" x2="1127.02" y2="675.66"/>
		<line class="st19" x1="863.85" y1="574.93" x2="1127.02" y2="574.93"/>
		<line class="st19" x1="863.85" y1="524.56" x2="1127.02" y2="524.56"/>
		<line class="st19" x1="863.85" y1="474.19" x2="1127.02" y2="474.19"/>
		<line class="st19" x1="863.85" y1="776.4" x2="1127.02" y2="776.4"/>
		<line class="st19" x1="863.85" y1="625.3" x2="1127.02" y2="625.3"/>
		<line class="st19" x1="863.85" y1="726.03" x2="1127.02" y2="726.03"/>
	</g>
	<rect x="878.78" y="411.02" class="st3" width="229" height="229"/>
	<rect x="907.48" y="443.67" class="st15" width="171.59" height="34.14"/>
	<text transform="matrix(1 0 0 1 907.4816 457.016)"><tspan x="0" y="0" class="st4 st6 st20">Guest Speaker </tspan><tspan x="0" y="20.57" class="st4 st6 st20">Dialogues</tspan></text>
	<rect x="907.48" y="487.76" class="st15" width="70.72" height="12.64"/>
	<text transform="matrix(1 0 0 1 907.4807 495.7719)" class="st4 st6 st18">0800 - 1000</text>
	<rect x="880.94" y="676.43" class="st5" width="229" height="109.89"/>
	<rect x="907.48" y="705.24" class="st15" width="171.59" height="34.14"/>
	<text transform="matrix(1 0 0 1 907.4816 718.5912)"><tspan x="0" y="0" class="st4 st6 st20">Focus Group </tspan><tspan x="0" y="20.57" class="st4 st6 st20">Discussions</tspan></text>
	<rect x="907.48" y="749.34" class="st15" width="70.72" height="12.64"/>
	<text transform="matrix(1 0 0 1 907.4807 757.3461)" class="st4 st6 st18">1100-1300</text>
	<g>
		
			<image style="overflow:visible;opacity:0.15;" width="660" height="162" xlink:href="73417705665ED9F3.png"  transform="matrix(1 0 0 1 309.9525 94.0442)">
		</image>
		<g>
			<g>
				<g>
					<text transform="matrix(1 0 0 1 338.0788 152.2079)" class="st21 st6 st22">Celebrate 10 Years in 1 Month</text>
				</g>
				<g>
					<g>
						<text transform="matrix(1 0 0 1 474.7175 205.2152)" class="st23 st6 st24">Clear your Calendar</text>
					</g>
				</g>
			</g>
		</g>
	</g>
</g>
</svg>
