<?xml version="1.0" encoding="utf-8"?>
<!-- Generator: Adobe Illustrator 24.1.3, SVG Export Plug-In . SVG Version: 6.00 Build 0)  -->
<svg version="1.1" id="Layer_1" xmlns="http://www.w3.org/2000/svg" xmlns:xlink="http://www.w3.org/1999/xlink" x="0px" y="0px"
	 viewBox="0 0 1080 1080" style="enable-background:new 0 0 1080 1080;" xml:space="preserve">
<path d="M1075.97,536.4c-0.4-28.67-3.22-57.05-8.33-85.2c-10.96-60.43-31.63-117.4-62.2-170.71
	c-29.02-50.6-65.37-95.26-108.94-134.04c-17.36-15.46-36.14-29.08-54.84-42.87c-33.17-24.43-68.24-45.52-106-62.01
	C697.79,25.04,658.53,13.1,617.78,5.85c-25.53-4.54-51.24-7.13-77.08-8.08c-24.45-0.9-48.87,0.46-73.21,3.19
	c-23.26,2.61-46.24,6.66-68.95,12.32c-42.79,10.69-83.52,26.6-122.31,47.6c-52.1,28.2-98.02,64.26-137.8,108.08
	c-37.35,41.13-67.34,87.13-89.99,137.87C21.17,367.89,6.39,431.9,3.42,498.65c-0.92,20.95-0.35,41.9,1.22,62.81
	c0.31,4.05,0.83,8.09,1.26,12.12c1.96-3.26,5.21-3.05,8.1-3.62c8.94-1.77,17.82-3.7,26.73-5.59c28.59-6.08,56.75-13.73,84.66-22.25
	c33.06-10.09,65.53-21.86,97.11-36.02c22.3-10.01,44.19-20.86,64.78-34.03c32.87-21.03,63.5-45.13,93.14-70.48
	c21.57-18.43,42.18-37.99,65.19-54.76c17.92-13.07,37.28-22.99,58.9-28.41c14.16-3.55,28.51-5.69,43.05-5.65
	c13.68,0.04,27.23,1.59,40.64,4.74c28.23,6.63,53.65,18.29,73.8,39.72c11.64,12.39,19.48,26.74,21.11,43.95
	c0.28,2.92,1.58,4.19,4.25,5.25c7.52,2.95,14.91,6.18,22.28,9.48c25.29,11.36,50.57,22.75,75.79,34.27c5,2.28,10.25,4.14,15.3,7.5
	c-12.28,4.29-24.45,6.75-36.58,9.2c-15.18,3.07-30.38,6.05-45.48,9.5c-18.49,4.22-35.67,11.83-52.75,19.76
	c-4.88,2.26-9.89,4.25-14.59,6.9c-28.36,16.03-52.06,37.43-72.3,62.8c-16.14,20.23-29.11,42.32-38.65,66.35
	c-4.27,10.76-7.74,21.84-11.55,32.77c-7.07,20.34-14.36,40.62-23.04,60.32c-14.31,32.49-31.35,63.47-52.12,92.37
	c-36.52,50.77-81.85,91.7-136.32,122.36c-25.48,14.35-52.26,25.88-80.12,34.87c-3.46,1.11-7.23,1.67-10.17,4.29
	c1.41,2.41,3.72,3.48,5.72,4.89c37.09,26.14,76.91,47.18,119.36,63.22c38.53,14.55,78.25,24.46,119.05,29.83
	c30.28,3.98,60.71,5.1,91.27,3.95c31.57-1.19,62.75-5.17,93.58-11.92c47.6-10.41,92.9-27.07,135.97-49.89
	C834.4,996.8,873.1,969.17,908,936.33c31.84-29.97,59.61-63.36,83.24-100.22c30.66-47.81,53.24-99.14,67.6-154.08
	c9.19-35.16,14.86-70.88,16.5-107.18C1075.91,562.07,1076.16,549.26,1075.97,536.4z M832.62,498.2
	c-7.89-33.45,7.35-70.49,41.33-90.16C882.76,440.07,866.03,475.33,832.62,498.2z M862.88,342.46c11.02,26.93-6.72,68.94-38.78,91.08
	C815.15,400.42,829.47,362.91,862.88,342.46z M837.07,270c3.72,8.43,6.15,17.01,7.1,26.08c2,19.14-3.88,36.24-13.45,52.39
	c-3.98,6.72-8.53,13.01-13.78,19.02C800.64,335.99,808.66,295.52,837.07,270z M817.39,210.64c6.68,15.66,9.73,31.51,6.03,48.28
	c-3.5,15.87-10.98,29.79-20.67,42.65c-1.73,2.29-3.6,4.49-5.48,6.82C781.11,276.94,788.48,237.67,817.39,210.64z M779.96,150.61
	c5.17,8.18,9.08,16.75,11.41,25.97c4.54,17.99,1.43,35.24-5.22,52.12c-2.96,7.5-6.55,14.7-11.24,21.85
	C753.36,217.64,757.04,180.27,779.96,150.61z M732.59,101.64c23.6,14.52,32.04,64.06,16.38,97.8
	C723.09,174.39,715.87,137.84,732.59,101.64z M657.35,82.16c35.85,13.17,49.53,41.27,54.01,76.09
	C683.88,154.94,656.14,116.08,657.35,82.16z M641.31,154.74c33.29-4.29,65.45,16.77,83.81,52.74
	C693.5,211.56,656.36,192.18,641.31,154.74z M666.54,212.03c36.77-3.2,66.52,19.18,84.06,52.99
	C718.9,269.39,682.37,249.94,666.54,212.03z M686.58,269.3c34.24-3.3,65,15.73,84.98,53.77c-16.91,0.48-32.61-2.46-47.1-10.66
	C706.94,302.5,695.15,287.52,686.58,269.3z M705.61,319.15c34.37-0.51,63.59,23.09,78.57,60.6
	C747.45,379.82,715.62,353.87,705.61,319.15z M782.13,436.82c-25.79-4.89-44.89-19.21-57.82-41.86c-2.65-4.66-4.84-9.6-6.95-14.55
	c-1.42-3.32-0.84-3.78,2.96-3.47c25.81,2.09,45.84,14.29,60.88,35c5.83,8.02,10.89,16.54,14.63,26.11
	C790.91,439,786.48,437.65,782.13,436.82z M750.6,480.58c27.93,7.73,50.22,48.94,47.15,87.68
	C764.81,552.63,746.63,519.68,750.6,480.58z M738.22,539.14c33.26,16.09,48.91,48.27,47.21,88.44
	c-14.12-6.86-25.32-16.48-33.78-29.2C739.79,580.57,736.54,560.76,738.22,539.14z M731.61,604.2c26.04,15.82,40.5,48.72,31.84,94.07
	C732.32,676.57,720.96,639.55,731.61,604.2z M766.46,747.36c-20.6,39.48-45.79,75.86-74.96,109.49
	c-6.51,7.5-12.98,15.07-20.35,22.32c-3.4-3.44-6.44-6.51-9.66-9.75c2.41-4.07,6.42-7.43,9.87-11.24
	c45.98-50.73,82.44-107.34,106.57-171.6c10.72-28.56,18.65-57.9,23.71-88c3.32-19.81,5.44-39.73,6.44-59.8
	c1.18-23.55,0.52-47.01-1.22-70.53c-4.38-59.26-18.18-116.41-37.63-172.34c-10.96-31.52-23.84-62.24-38.29-92.33
	c-5.28-11.01-10.42-22.09-16.36-32.79c-0.59-1.06-2.12-2.44-0.15-3.74c2.09-1.38,3.42-0.4,4.53,1.42
	c4.53,7.42,9.32,14.71,13.6,22.28c30.29,53.7,52.42,110.66,67.97,170.29c8.28,31.71,14.4,63.82,18.14,96.33
	c3.17,27.57,5.4,55.26,3.94,83.08c-2.12,40.26-8.81,79.75-20.28,118.39C793.25,689.51,781.25,719.03,766.46,747.36z M797.12,698.79
	c5.92-38.55,33.33-64.34,69.3-71.53C863.28,663.18,833.73,689.01,797.12,698.79z M819.79,633.75
	c-1.22-32.58,17.25-66.44,57.35-81.81C877.97,588,856.65,617.27,819.79,633.75z M833.3,567.27c-7.13-33.77,8.4-69.61,43.05-89.57
	C884.5,506.52,870.14,542.48,833.3,567.27z"/>
</svg>
